<?xml version="1.0" encoding="utf-8"?>
<!-- Generator: Adobe Illustrator 22.0.1, SVG Export Plug-In . SVG Version: 6.00 Build 0)  -->
<svg version="1.1" id="Elements" xmlns="http://www.w3.org/2000/svg"
	xmlns:xlink="http://www.w3.org/1999/xlink" x="0px" y="0px"
	viewBox="0 0 500 500" style="enable-background:new 0 0 500 500;" xml:space="preserve">
<style type="text/css">
	.element{fill:#EBEBEB;}
</style>
<path id="Element_9_" class="element" d="M78.3,356.5v1.7c0,0.6,0.1,1.1,0.2,1.6l8.6,32c0.7,2.8,3.3,4.7,6.1,4.7h95.9
	c3.5,0,6.4-2.8,6.4-6.4v-33.8c0-3.5-2.8-6.4-6.4-6.4H84.6C81.1,350.1,78.3,353,78.3,356.5z"/>
<path id="Element_8_" class="element" d="M224.7,108.1l-75.2,280.5c-1.1,4,2,8,6.1,8h34.9c2.9,0,5.4-1.9,6.1-4.7l75.2-280.5
	c1.1-4-2-8-6.1-8h-34.9C228,103.4,225.5,105.3,224.7,108.1z"/>
<path id="Element_7_" class="element" d="M228.1,111.4l75.2,280.5c0.7,2.8,3.3,4.7,6.1,4.7h34.9c4.2,0,7.2-4,6.1-8l-75.2-280.5
	c-0.7-2.8-3.3-4.7-6.1-4.7h-34.9C230.1,103.4,227,107.4,228.1,111.4z"/>
<path id="Element_6_" class="element" d="M87.5,108.1l-9,33.8c-0.1,0.5-0.2,1.1-0.2,1.6l0,0c0,3.5,2.8,6.4,6.4,6.4h75.9
	c2.9,0,5.4-1.9,6.1-4.7l9-33.8c1.1-4-2-8-6.1-8H93.7C90.8,103.4,88.3,105.3,87.5,108.1z"/>
<path id="Element_5_" class="element" d="M93.7,103.4c-2.9,0-5.4,1.9-6.1,4.7l-9.3,34.6l-4.9,18.4l-23.6,88.1c-0.3,1.1-0.3,2.2,0,3.3
	l17.5,65.2c1.7,6.3,10.6,6.3,12.3,0l17.9-66.8l27-101l10.3-38.5c1.1-4-2-8-6.1-8H93.7z"/>
<path id="Element_4_" class="element" d="M124,350.1l-26.6-99.3L79.5,184c-1.7-6.3-10.6-6.3-12.3,0l-17.5,65.2c-0.3,1.1-0.3,2.2,0,3.3
	l23.6,88.1l4.9,18.5l8.8,32.8c0.7,2.8,3.3,4.7,6.1,4.7h34.9c4.2,0,7.2-4,6.1-8L124,350.1z"/>
<path id="Element_3_" class="element" d="M304.5,356.5v33.8c0,3.5,2.8,6.4,6.4,6.4h95.9c2.9,0,5.4-1.9,6.1-4.7l8.6-32
	c0.1-0.5,0.2-1.1,0.2-1.6v-1.7c0-3.5-2.8-6.4-6.4-6.4H310.9C307.4,350.1,304.5,353,304.5,356.5z"/>
<path id="Element_2_" class="element" d="M324.3,111.4l9,33.8c0.7,2.8,3.3,4.7,6.1,4.7h75.9c3.5,0,6.4-2.8,6.4-6.4l0,0
	c0-0.6-0.1-1.1-0.2-1.6l-9-33.8c-0.7-2.8-3.3-4.7-6.1-4.7h-75.9C326.3,103.4,323.2,107.4,324.3,111.4z"/>
<path id="Element_1_" class="element" d="M371.4,103.4c-4.2,0-7.2,4-6.1,8l10.3,38.5l27,101l17.9,66.8c1.7,6.3,10.6,6.3,12.3,0
	l17.5-65.2c0.3-1.1,0.3-2.2,0-3.3l-23.6-88.1l-4.9-18.4l-9.3-34.6c-0.7-2.8-3.3-4.7-6.1-4.7H371.4z"/>
<path id="Element" class="element" d="M371.9,396.6h34.9c2.9,0,5.4-1.9,6.1-4.7l8.8-32.8l4.9-18.5l23.6-88.1c0.3-1.1,0.3-2.2,0-3.3
	L432.8,184c-1.7-6.3-10.6-6.3-12.3,0l-17.9,66.9L376,350.1l-10.3,38.5C364.6,392.6,367.7,396.6,371.9,396.6z"/>
</svg>